<mxfile host="Electron" agent="Mozilla/5.0 (Windows NT 10.0; Win64; x64) AppleWebKit/537.36 (KHTML, like Gecko) draw.io/28.0.4 Chrome/138.0.7204.97 Electron/37.2.1 Safari/537.36" version="28.0.4">
  <diagram name="Page-1" id="vkX-y_mw0rxXc4ceeSFh">
    <mxGraphModel dx="710" dy="611" grid="0" gridSize="10" guides="1" tooltips="1" connect="1" arrows="1" fold="1" page="1" pageScale="1" pageWidth="827" pageHeight="1169" background="none" math="0" shadow="1">
      <root>
        <mxCell id="0" />
        <mxCell id="1" parent="0" />
        <mxCell id="ZN7OhJrLCNEF342QoOF8-2" value="" style="rounded=0;whiteSpace=wrap;html=1;" parent="1" vertex="1">
          <mxGeometry x="250" y="90" width="280" height="470" as="geometry" />
        </mxCell>
        <mxCell id="ZN7OhJrLCNEF342QoOF8-1" value="responsable" style="shape=umlActor;verticalLabelPosition=bottom;verticalAlign=top;html=1;outlineConnect=0;" parent="1" vertex="1">
          <mxGeometry x="84" y="220" width="30" height="60" as="geometry" />
        </mxCell>
        <mxCell id="ZN7OhJrLCNEF342QoOF8-3" value="demande crédit restant" style="ellipse;whiteSpace=wrap;html=1;" parent="1" vertex="1">
          <mxGeometry x="294" y="250" width="120" height="80" as="geometry" />
        </mxCell>
        <mxCell id="ZN7OhJrLCNEF342QoOF8-4" value="ajouter crédit&amp;nbsp;" style="ellipse;whiteSpace=wrap;html=1;" parent="1" vertex="1">
          <mxGeometry x="294" y="450" width="120" height="80" as="geometry" />
        </mxCell>
        <mxCell id="ZN7OhJrLCNEF342QoOF8-5" value="demande nombre d&#39;envoi mensuel" style="ellipse;whiteSpace=wrap;html=1;" parent="1" vertex="1">
          <mxGeometry x="294" y="350" width="120" height="80" as="geometry" />
        </mxCell>
        <mxCell id="ZN7OhJrLCNEF342QoOF8-6" value="" style="endArrow=none;html=1;rounded=0;" parent="1" source="ZN7OhJrLCNEF342QoOF8-1" target="ZN7OhJrLCNEF342QoOF8-3" edge="1">
          <mxGeometry width="50" height="50" relative="1" as="geometry">
            <mxPoint x="374" y="430" as="sourcePoint" />
            <mxPoint x="424" y="380" as="targetPoint" />
          </mxGeometry>
        </mxCell>
        <mxCell id="ZN7OhJrLCNEF342QoOF8-7" value="" style="endArrow=none;html=1;rounded=0;" parent="1" source="ZN7OhJrLCNEF342QoOF8-1" target="ZN7OhJrLCNEF342QoOF8-5" edge="1">
          <mxGeometry width="50" height="50" relative="1" as="geometry">
            <mxPoint x="374" y="430" as="sourcePoint" />
            <mxPoint x="424" y="380" as="targetPoint" />
          </mxGeometry>
        </mxCell>
        <mxCell id="ZN7OhJrLCNEF342QoOF8-8" value="" style="endArrow=none;html=1;rounded=0;entryX=0;entryY=0.5;entryDx=0;entryDy=0;" parent="1" source="ZN7OhJrLCNEF342QoOF8-1" target="ZN7OhJrLCNEF342QoOF8-4" edge="1">
          <mxGeometry width="50" height="50" relative="1" as="geometry">
            <mxPoint x="374" y="430" as="sourcePoint" />
            <mxPoint x="424" y="380" as="targetPoint" />
          </mxGeometry>
        </mxCell>
        <mxCell id="ZN7OhJrLCNEF342QoOF8-10" value="allumer/eteindre service" style="ellipse;whiteSpace=wrap;html=1;" parent="1" vertex="1">
          <mxGeometry x="294" y="160" width="120" height="80" as="geometry" />
        </mxCell>
        <mxCell id="ZN7OhJrLCNEF342QoOF8-11" value="" style="endArrow=none;html=1;rounded=0;exitX=0.5;exitY=0.5;exitDx=0;exitDy=0;exitPerimeter=0;" parent="1" source="ZN7OhJrLCNEF342QoOF8-1" target="ZN7OhJrLCNEF342QoOF8-10" edge="1">
          <mxGeometry width="50" height="50" relative="1" as="geometry">
            <mxPoint x="374" y="360" as="sourcePoint" />
            <mxPoint x="424" y="310" as="targetPoint" />
          </mxGeometry>
        </mxCell>
        <mxCell id="ZN7OhJrLCNEF342QoOF8-15" value="gestion smartphone -gateway sms" style="text;html=1;align=center;verticalAlign=middle;whiteSpace=wrap;rounded=0;fontSize=16;fontStyle=1" parent="1" vertex="1">
          <mxGeometry x="260" y="100" width="210" height="30" as="geometry" />
        </mxCell>
        <mxCell id="hr3Dwamd6WRlLGqigXhI-2" value="nécessite une &lt;strong data-end=&quot;410&quot; data-start=&quot;378&quot;&gt;authentification &quot;stateless&quot;&lt;/strong&gt;" style="rounded=0;whiteSpace=wrap;html=1;" parent="1" vertex="1">
          <mxGeometry x="574" y="260" width="120" height="60" as="geometry" />
        </mxCell>
        <mxCell id="hr3Dwamd6WRlLGqigXhI-4" value="" style="endArrow=none;dashed=1;html=1;dashPattern=1 3;strokeWidth=2;rounded=0;entryX=0.01;entryY=0.383;entryDx=0;entryDy=0;exitX=0.997;exitY=0.383;exitDx=0;exitDy=0;exitPerimeter=0;entryPerimeter=0;" parent="1" source="ZN7OhJrLCNEF342QoOF8-3" target="hr3Dwamd6WRlLGqigXhI-2" edge="1">
          <mxGeometry width="50" height="50" relative="1" as="geometry">
            <mxPoint x="334" y="334" as="sourcePoint" />
            <mxPoint x="384" y="284" as="targetPoint" />
          </mxGeometry>
        </mxCell>
        <mxCell id="hr3Dwamd6WRlLGqigXhI-5" value="" style="endArrow=none;dashed=1;html=1;dashPattern=1 3;strokeWidth=2;rounded=0;entryX=0.01;entryY=0.637;entryDx=0;entryDy=0;entryPerimeter=0;exitX=0.977;exitY=0.283;exitDx=0;exitDy=0;exitPerimeter=0;" parent="1" source="ZN7OhJrLCNEF342QoOF8-5" target="hr3Dwamd6WRlLGqigXhI-2" edge="1">
          <mxGeometry width="50" height="50" relative="1" as="geometry">
            <mxPoint x="334" y="334" as="sourcePoint" />
            <mxPoint x="384" y="284" as="targetPoint" />
            <Array as="points">
              <mxPoint x="489" y="298" />
            </Array>
          </mxGeometry>
        </mxCell>
        <mxCell id="hr3Dwamd6WRlLGqigXhI-6" value="" style="endArrow=none;dashed=1;html=1;dashPattern=1 3;strokeWidth=2;rounded=0;exitX=0.917;exitY=0.233;exitDx=0;exitDy=0;entryX=-0.01;entryY=0.89;entryDx=0;entryDy=0;entryPerimeter=0;exitPerimeter=0;" parent="1" source="ZN7OhJrLCNEF342QoOF8-4" target="hr3Dwamd6WRlLGqigXhI-2" edge="1">
          <mxGeometry width="50" height="50" relative="1" as="geometry">
            <mxPoint x="334" y="334" as="sourcePoint" />
            <mxPoint x="384" y="284" as="targetPoint" />
            <Array as="points">
              <mxPoint x="502" y="313" />
            </Array>
          </mxGeometry>
        </mxCell>
      </root>
    </mxGraphModel>
  </diagram>
</mxfile>
